PathFileType	4	(X/Y/Z)	C:/Users/opensim2020/Desktop/walking_exp_matlab/subject01_walking06_straight_03.trc																																																																																																																															
DataRate	CameraRate	NumFrames	NumMarkers	Units	OrigDataRate	OrigDataStartFrame	OrigNumFrames																																																																																																																											
100	100	5	43	mm	100	2285	206																																																																																																																											
Frame#	Time	LFHD			RFHD			LBHD			RBHD			C7			T10			CLAV			STRN			RBAK			LSHO			LUPA			LELB			LFRM			LWRA			LWRB			LFIN			RSHO			RUPA			RELB			RFRM			RWRA			RWRB			RFIN			LASI			RASI			LPSI			RPSI			LTHI			LKNE			LTIB			LANK			LHEE			LTOE			RTHI			RKNE			RTIB			RANK			RHEE			RTOE			*39			*40			*41			*42		
		X1	Y1	Z1	X2	Y2	Z2	X3	Y3	Z3	X4	Y4	Z4	X5	Y5	Z5	X6	Y6	Z6	X7	Y7	Z7	X8	Y8	Z8	X9	Y9	Z9	X10	Y10	Z10	X11	Y11	Z11	X12	Y12	Z12	X13	Y13	Z13	X14	Y14	Z14	X15	Y15	Z15	X16	Y16	Z16	X17	Y17	Z17	X18	Y18	Z18	X19	Y19	Z19	X20	Y20	Z20	X21	Y21	Z21	X22	Y22	Z22	X23	Y23	Z23	X24	Y24	Z24	X25	Y25	Z25	X26	Y26	Z26	X27	Y27	Z27	X28	Y28	Z28	X29	Y29	Z29	X30	Y30	Z30	X31	Y31	Z31	X32	Y32	Z32	X33	Y33	Z33	X34	Y34	Z34	X35	Y35	Z35	X36	Y36	Z36	X37	Y37	Z37	X38	Y38	Z38	X39	Y39	Z39	X40	Y40	Z40	X41	Y41	Z41	X42	Y42	Z42	X43	Y43	Z43
																																																																																																																																		
181	1.8	682.29169	1651.84839	1344.43225	724.39081	1658.61108	1451.14636	566.95331	1621.26526	1384.26843	608.24042	1628.04163	1497.06934	519.8728	1427.15137	1423.10901	476.36389	1133.2937	1435.43762	660.11072	1351.34338	1420.0249	696.89838	1196.66638	1413.73303	460.76022	1233.16235	1500.29248	599.4505	1382.40417	1261.73621	594.85364	1205.0957	1168.83484	621.99408	1054.96826	1149.59045	713.00311	981.20667	1127.27795	838.42346	925.0271	1151.6416	796.78503	892.83246	1124.24023	874.74255	860.32019	1117.26831	602.59967	1384.0813	1574.37024	507.40176	1197.47913	1668.53076	483.97086	1075.71179	1670.34912	479.48318	956.31659	1703.16174	528.13062	822.02673	1690.672	484.25201	835.71472	1727.20618	498.31149	749.5412	1725.44751	638.32916	923.23236	1317.73279	655.68286	930.92865	1534.88464	457.49625	939.19458	1391.12756	471.6286	939.12482	1535.53882	541.43774	597.75586	1279.72485	500.46805	466.61807	1299.36072	413.91135	298.63556	1298.65308	345.25677	90.76505	1357.7666	295.27115	71.66556	1408.75415	485.0834	34.55495	1356.18408	677.57666	605.04553	1612.08923	744.27264	464.66849	1580.70044	753.70599	292.10025	1595.9093	812.50897	88.33107	1556.01855	782.41718	35.27481	1505.45349	957.84167	93.50349	1555.66858	710.43188	1692.77246	1429.54407	1973.12915	1023.39435	-3101.85156	2012.5531	1022.02686	-3140.65015	NaN	NaN	NaN
182	1.81	691.85254	1651.19812	1346.05151	734.06293	1657.95679	1452.78918	576.48981	1620.58545	1386.02795	617.91211	1627.30164	1498.76099	529.61359	1426.28503	1424.70874	486.6604	1132.23889	1436.48254	669.9826	1350.69238	1421.44727	707.05792	1196.04492	1414.75159	470.85208	1231.98413	1501.38245	609.23584	1381.98096	1263.23059	604.83875	1205.00391	1169.73157	632.53247	1055.18396	1149.64807	723.97729	981.95398	1127.16943	849.73853	926.59216	1151.50244	808.37866	894.19232	1123.92944	886.51666	862.4444	1116.68384	612.32709	1382.99512	1575.86536	516.98584	1196.37146	1669.63049	493.54871	1074.64868	1671.49524	489.05069	955.15643	1704.20227	537.67676	820.93292	1691.81494	493.76328	834.43384	1728.13086	507.90512	748.33966	1726.42627	648.40192	922.44843	1318.25244	666.61005	930.0567	1535.17334	467.95682	938.48578	1392.13245	482.44244	938.30255	1536.26782	549.08813	597.78314	1279.74182	506.95486	466.86075	1299.41125	418.10071	299.96188	1298.4375	346.52118	92.83199	1357.17993	295.96555	74.65137	1408.22217	485.21475	34.49681	1356.16724	687.8075	604.15143	1611.66162	754.03699	463.85675	1580.58069	766.25952	291.7684	1595.91174	826.77869	88.47207	1555.69824	796.81909	34.7086	1505.04919	971.92511	94.26949	1553.75232	720.06854	1692.07666	1431.19543	1973.03882	1023.7182	-3101.92285	2012.56653	1022.0885	-3140.64917	NaN	NaN	NaN
183	1.82	701.38348	1650.60437	1347.82166	743.6875	1657.3656	1454.54138	586.05902	1619.89136	1387.84204	627.61139	1626.60046	1500.55933	539.47705	1425.37683	1426.39587	497.03519	1131.28918	1437.53406	679.96906	1350.10986	1422.99963	717.32434	1195.56519	1415.91785	481.02969	1230.79431	1502.50769	619.10712	1381.58252	1264.77527	614.77771	1205.00354	1170.71191	642.76825	1055.27039	1149.81519	734.68176	982.65186	1127.22803	860.66504	927.91943	1151.4137	819.52747	895.36438	1123.78601	897.89044	864.29175	1116.20227	622.16064	1381.92432	1577.45459	526.7038	1195.10217	1670.82764	503.41693	1073.41321	1672.70862	499.00531	953.91254	1705.44495	547.67865	819.71686	1692.98645	503.8985	833.45148	1729.63513	517.95398	747.18439	1727.57739	658.91608	921.82959	1318.48645	677.57367	929.29724	1535.5835	478.44656	937.72028	1393.17505	493.20132	937.40149	1537.27454	557.30579	597.75452	1279.87634	514.21527	467.03876	1299.44641	422.76474	301.41974	1298.05273	347.8197	95.3733	1356.64514	296.91501	77.98082	1407.45581	485.08777	34.81526	1355.625	699.25378	603.73724	1611.37988	764.12225	462.8045	1580.24438	776.7749	290.49432	1594.86365	838.36023	87.45834	1554.79712	807.67157	34.6915	1504.3551	984.09705	93.91633	1552.26794	729.62878	1691.49146	1432.93848	1973.19824	1023.20062	-3101.93994	2012.54663	1022.05762	-3140.54272	NaN	NaN	NaN
184	1.83	710.82123	1650.06348	1349.67126	753.26813	1656.80615	1456.302	595.6377	1619.22595	1389.81628	637.29584	1625.8761	1502.46655	549.38312	1424.53271	1428.08545	507.42319	1130.33643	1438.58252	689.97882	1349.55493	1424.63708	727.67328	1195.10669	1417.07544	491.30173	1229.65552	1503.73071	628.93188	1381.2616	1266.41003	624.63129	1204.94861	1171.797	652.82697	1055.41992	1150.23621	745.0296	983.21027	1127.38	871.30048	929.1051	1151.42554	830.25482	896.32996	1123.76526	908.79041	865.8222	1115.80713	632.01837	1380.84314	1579.09192	536.66998	1193.79187	1672.13965	513.54749	1072.04663	1673.99744	509.23669	952.52289	1706.65784	558.17572	818.40936	1694.19275	514.32111	832.07538	1730.8407	528.28076	745.77307	1728.72729	669.47247	921.14618	1319.00281	688.71228	928.57349	1536.08276	489.22226	937.1178	1394.30005	503.98181	936.58655	1538.14722	566.03577	597.58667	1280.08325	522.13477	467.07825	1299.46521	427.94662	302.95325	1297.71594	349.29126	97.81021	1355.88062	298.05319	81.49847	1406.54358	485.19836	34.82512	1355.51636	711.3678	603.16644	1610.97388	774.52087	461.66437	1579.75574	786.6131	289.13544	1593.87744	847.97668	86.2009	1553.95752	817.80133	32.7359	1503.51831	993.6283	92.13741	1550.42334	739.14911	1690.92737	1434.76318	1973.04492	1023.96198	-3102.0437	2012.57959	1022.01239	-3140.53467	NaN	NaN	NaN
185	1.84	720.21942	1649.58557	1351.60779	762.83813	1656.32227	1458.18396	605.14868	1618.55786	1391.94189	646.95947	1625.18933	1504.50623	559.31946	1423.76404	1430.0575	518.12994	1129.33862	1439.69189	700.06665	1349.05029	1426.30249	738.16418	1194.70337	1418.34399	501.6008	1228.48206	1505.02551	638.85858	1380.93188	1268.17871	634.50909	1205.02625	1172.96252	662.52667	1055.47327	1150.66882	755.0224	983.6333	1127.71399	881.40442	930.04529	1151.71472	840.59558	897.08948	1123.85681	919.2287	867.00323	1115.71265	641.95343	1379.79956	1580.92969	546.89435	1192.34094	1673.50146	523.99341	1070.6488	1675.39233	519.85345	951.1546	1708.00146	568.85522	817.09357	1695.52966	524.8371	830.53125	1731.87744	539.05066	744.40253	1730.09058	680.42621	920.48138	1319.52832	699.97754	927.86249	1536.6366	500.16049	936.49268	1395.45374	515.27484	935.50159	1538.97217	575.46057	597.30481	1280.42395	530.64758	466.96268	1299.51465	433.60056	304.43457	1297.35413	350.99048	100.79021	1355.05823	299.32858	85.24806	1405.52087	485.3255	34.76826	1355.41919	723.87134	602.52795	1610.55505	785.18457	460.48572	1579.22656	795.42023	287.21869	1593.02368	855.36169	84.09825	1552.68201	824.43597	31.99667	1502.34436	1001.28882	88.84426	1548.74463	748.60162	1690.42712	1436.67993	1973.16748	1023.45081	-3101.97437	2012.54724	1022.06555	-3140.63599	NaN	NaN	NaN
